<svg xmlns="http://www.w3.org/2000/svg" viewBox="0 0 20 20">
  <defs>
    <style>
      .cls-1 {
        fill: #fff;
      }
    </style>
  </defs>
  <path id="Shape" class="cls-1" d="M10,20c-2.7,0-3.052-.012-4.123-.06a7.422,7.422,0,0,1-2.428-.464,4.913,4.913,0,0,1-1.771-1.154A4.89,4.89,0,0,1,.525,16.55,7.4,7.4,0,0,1,.06,14.123C.012,13.052,0,12.7,0,10S.012,6.948.06,5.877A7.409,7.409,0,0,1,.525,3.45,4.9,4.9,0,0,1,1.678,1.678,4.914,4.914,0,0,1,3.45.525,7.412,7.412,0,0,1,5.878.06C6.949.012,7.3,0,10,0s3.053.012,4.124.06a7.4,7.4,0,0,1,2.427.464,4.908,4.908,0,0,1,1.77,1.154A4.919,4.919,0,0,1,19.476,3.45a7.409,7.409,0,0,1,.464,2.427C19.988,6.931,20,7.284,20,10s-.011,3.068-.059,4.123a7.377,7.377,0,0,1-.464,2.427,5.118,5.118,0,0,1-2.925,2.925,7.409,7.409,0,0,1-2.427.464C13.052,19.989,12.729,20,10,20ZM10,1.8c-2.687,0-3,.01-4.041.059A5.524,5.524,0,0,0,4.1,2.2a3.082,3.082,0,0,0-1.15.748A3.12,3.12,0,0,0,2.2,4.1,5.586,5.586,0,0,0,1.86,5.959C1.812,7.019,1.8,7.337,1.8,10c0,2.687.01,3,.058,4.041A5.542,5.542,0,0,0,2.2,15.9a3.091,3.091,0,0,0,.749,1.149A3.117,3.117,0,0,0,4.1,17.8a5.478,5.478,0,0,0,1.857.344C7,18.188,7.313,18.2,10,18.2s3-.01,4.041-.059A5.478,5.478,0,0,0,15.9,17.8a3.308,3.308,0,0,0,1.9-1.9,5.588,5.588,0,0,0,.344-1.858C18.19,13,18.2,12.686,18.2,10s-.01-3-.059-4.041A5.524,5.524,0,0,0,17.8,4.1a3.114,3.114,0,0,0-.748-1.151A3.113,3.113,0,0,0,15.9,2.2a5.586,5.586,0,0,0-1.857-.344C12.981,1.811,12.664,1.8,10,1.8Zm0,13.334A5.135,5.135,0,1,1,15.135,10,5.141,5.141,0,0,1,10,15.135Zm0-8.469A3.334,3.334,0,1,0,13.334,10,3.337,3.337,0,0,0,10,6.666Zm5.338-.8a1.2,1.2,0,1,1,1.2-1.2A1.2,1.2,0,0,1,15.339,5.862Z"/>
</svg>
